# xmcd CD database file
#
# Track frame offsets:
#	150
#	13160
#	22218
#	33878
#	45023
#	60701
#	71232
#	79403
#	87448
#
# Disc length: 1771 seconds
#
# Revision: 1
# Processed by: cddbd v1.5.2PL0 Copyright (c) Steve Scherf et al.
# Submitted via: CDex 1.51
#
DISCID=7206e909
DTITLE=Warren Malone - One Of These Days
DYEAR=2007
DGENRE=Country
TTITLE0=One Of These Days
TTITLE1=Suzanna Gal
TTITLE2=Many Thousand Gone
TTITLE3=Cuckoo Bird
TTITLE4=Mole In The Ground
TTITLE5=Fare Thee Well
TTITLE6=L.B's Waltz
TTITLE7=All About You
TTITLE8=Angel Gabriel
EXTD=YEAR: 2007
EXTT0=
EXTT1=
EXTT2=
EXTT3=
EXTT4=
EXTT5=
EXTT6=
EXTT7=
EXTT8=
PLAYORDER=
